<?xml version="1.0" encoding="iso-8859-1"?>
<!-- Uploaded to: SVG Repo, www.svgrepo.com, Generator: SVG Repo Mixer Tools -->
<svg height="800px" width="800px" version="1.1" id="Layer_1" xmlns="http://www.w3.org/2000/svg" xmlns:xlink="http://www.w3.org/1999/xlink" 
	 viewBox="0 0 390.465 390.465" xml:space="preserve">
<g>
	<path style="fill:#FFC10D;" d="M212.428,132.161c-7.046-3.232-22.238-9.762-42.279-15.192c12.994-3.232,32-3.814,54.756,7.564
		C221.091,127.765,217.341,130.48,212.428,132.161z"/>
	<path style="fill:#FFC10D;" d="M62.319,139.725c13.576-5.947,29.802-9.244,47.709-9.244c48.808,0,95.935,22.756,96.453,23.273
		c2.198,1.099,4.848,1.616,7.046,1.099c32-7.046,45.511-39.564,50.424-56.889c35.232,8.145,46.61,36.848,49.842,52.04
		c-72.081,9.762-88.307,69.947-91.604,94.836h-53.657C165.301,218.27,149.592,152.202,62.319,139.725z"/>
</g>
<path style="fill:#56ACE0;" d="M322.586,203.143c-24.954,0-45.511,20.622-45.511,45.511s20.622,45.511,45.511,45.511
	s45.511-20.622,45.511-45.511S348.057,203.143,322.586,203.143z"/>
<path style="fill:#FFFFFF;" d="M112.743,248.654c0,24.954-20.622,45.511-45.511,45.511c-24.954,0-45.511-20.622-45.511-45.511
	c0-24.954,20.622-45.511,45.511-45.511c5.43,0,10.279,1.099,15.192,2.715l-24.372,36.848c-3.232,4.848-2.198,11.895,3.232,15.192
	c4.848,3.232,11.895,2.133,15.192-3.232l24.372-36.848C108.412,225.898,112.743,236.694,112.743,248.654z"/>
<path style="fill:#194F82;" d="M323.038,181.422c-8.663,0-17.325,1.616-24.954,4.848l-5.43-8.663
	c9.244-3.814,20.622-6.529,34.133-7.046c5.947-0.517,10.861-5.43,10.279-11.378c-1.616-26.57-20.04-77.511-80.226-84.558
	c-5.947-0.517-10.861,3.232-11.895,9.244c0,0-2.198,11.378-7.564,23.273c-50.424-28.186-89.406-5.43-101.883,3.814
	c-8.145-1.099-16.808-1.616-24.954-1.616c-28.703,0-53.657,7.046-73.697,20.622c-2.715,2.198-4.848,5.43-4.848,8.663v10.279
	c0,5.947,4.331,10.861,10.279,10.861c25.988,1.099,45.511,7.046,60.186,15.709l-8.145,11.895
	c-8.145-3.814-17.325-5.947-27.087-5.947C30.384,181.422,0,211.741,0,248.654s30.319,67.232,67.232,67.232
	s67.232-30.319,67.232-67.232c0-19.523-8.145-36.848-21.657-49.325l7.046-10.861c28.186,27.669,27.669,64.517,27.669,67.232
	c0,5.947,4.848,11.378,10.861,11.378h73.18c5.947,0,10.861-4.848,10.861-10.861c0-2.198,1.099-42.796,31.418-67.232l5.43,8.663
	C265.18,210.125,256,227.967,256,248.589c0,36.848,30.319,67.232,67.232,67.232s67.232-30.319,67.232-67.232
	S359.887,181.422,323.038,181.422z M224.905,124.533c-3.814,3.232-7.564,5.947-12.477,7.564
	c-7.046-3.232-22.238-9.762-42.279-15.192C183.208,113.672,202.15,113.155,224.905,124.533z M67.168,294.165
	c-24.954,0-45.511-20.622-45.511-45.511s20.622-45.511,45.511-45.511c5.43,0,10.279,1.099,15.192,2.715l-24.372,36.848
	c-3.232,4.848-2.198,11.895,3.232,15.192c4.848,3.232,11.895,2.198,15.192-3.232l24.372-36.848
	c7.564,8.145,11.895,18.941,11.895,30.901C112.743,273.608,92.121,294.165,67.168,294.165z M222.19,244.84h-53.657
	c-3.232-26.57-18.941-92.703-106.214-105.115c13.576-5.947,29.802-9.244,47.709-9.244c48.808,0,95.935,22.756,96.453,23.273
	c2.198,1.099,4.848,1.616,7.046,1.099c32-7.046,45.511-39.564,50.424-56.889c35.232,8.145,46.61,36.848,49.842,52.04
	C241.713,159.765,225.422,219.951,222.19,244.84z M323.038,294.165c-24.954,0-45.511-20.622-45.511-45.511
	c0-12.477,4.848-23.855,12.994-32l22.756,37.366c3.232,4.848,9.762,6.529,14.61,3.814c4.848-3.232,6.529-9.762,3.814-14.61
	l-22.756-37.947c4.331-1.616,8.663-2.198,13.576-2.198c24.954,0,45.511,20.622,45.511,45.511S347.927,294.165,323.038,294.165z"/>
</svg>